<svg width="512" height="96" viewBox="0 0 512 96" fill="none" xmlns="http://www.w3.org/2000/svg">
<rect x="0.5" y="0.5" width="511" height="95" fill="#0A0A0A" stroke="url(#paint0_linear_898_1441)"/>
<path d="M187.656 48V27.072H191.368V44.864H200.072V48H187.656ZM203.399 48V32.288H207.079V48H203.399ZM205.255 29.536C204.593 29.536 204.06 29.344 203.655 28.96C203.249 28.576 203.047 28.064 203.047 27.424C203.047 26.8053 203.249 26.304 203.655 25.92C204.06 25.5147 204.593 25.312 205.255 25.312C205.916 25.312 206.449 25.5147 206.855 25.92C207.26 26.304 207.463 26.8053 207.463 27.424C207.463 28.064 207.26 28.576 206.855 28.96C206.449 29.344 205.916 29.536 205.255 29.536ZM217.278 48.32C215.465 48.32 214.174 47.7973 213.406 46.752C212.66 45.7067 212.286 44.3413 212.286 42.656V35.2H210.046V32.448L212.478 32.288L212.926 27.36H215.998V32.288H219.998V35.2H215.998V42.656C215.998 43.5733 216.18 44.2667 216.542 44.736C216.905 45.184 217.46 45.408 218.206 45.408C218.484 45.408 218.761 45.3867 219.038 45.344C219.316 45.28 219.582 45.1947 219.838 45.088L220.51 47.648C220.105 47.84 219.625 48 219.07 48.128C218.516 48.256 217.918 48.32 217.278 48.32ZM226.889 48.32C226.014 48.32 225.31 48.1493 224.777 47.808C224.265 47.4453 223.891 46.9333 223.657 46.272C223.422 45.6107 223.305 44.8213 223.305 43.904V25.408H226.985V44.096C226.985 44.544 227.07 44.864 227.241 45.056C227.411 45.2267 227.603 45.312 227.817 45.312C227.902 45.312 227.977 45.312 228.041 45.312C228.126 45.2907 228.233 45.2693 228.361 45.248L228.809 48C228.617 48.1067 228.35 48.1813 228.009 48.224C227.689 48.288 227.315 48.32 226.889 48.32ZM233.016 54.432C232.611 54.432 232.238 54.4 231.896 54.336C231.576 54.272 231.267 54.1973 230.968 54.112L231.704 51.328C231.918 51.392 232.11 51.4347 232.28 51.456C232.451 51.4773 232.622 51.488 232.792 51.488C233.624 51.488 234.286 51.232 234.776 50.72C235.288 50.208 235.672 49.568 235.928 48.8L236.216 47.808L230.04 32.288H233.784L236.504 40C236.739 40.6827 236.963 41.408 237.176 42.176C237.411 42.9227 237.646 43.6693 237.88 44.416H238.008C238.2 43.6907 238.392 42.9547 238.584 42.208C238.798 41.44 239 40.704 239.192 40L241.56 32.288H245.112L239.416 48.704C238.99 49.8773 238.499 50.8907 237.944 51.744C237.39 52.5973 236.718 53.2587 235.928 53.728C235.139 54.1973 234.168 54.432 233.016 54.432ZM245.448 48L250.44 39.808L245.8 32.288H249.736L251.496 35.264C251.709 35.6907 251.933 36.1387 252.168 36.608C252.424 37.056 252.68 37.4933 252.936 37.92H253.064C253.256 37.4933 253.459 37.056 253.672 36.608C253.885 36.1387 254.099 35.6907 254.312 35.264L255.784 32.288H259.624L254.952 40.224L259.944 48H255.976L254.056 44.896C253.8 44.4267 253.533 43.9573 253.256 43.488C253 43.0187 252.733 42.56 252.456 42.112H252.328C252.093 42.56 251.859 43.0187 251.624 43.488C251.389 43.936 251.165 44.4053 250.952 44.896L249.288 48H245.448ZM264.447 48.384C263.765 48.384 263.189 48.1493 262.719 47.68C262.271 47.1893 262.047 46.6027 262.047 45.92C262.047 45.1733 262.271 44.5653 262.719 44.096C263.189 43.6267 263.765 43.392 264.447 43.392C265.109 43.392 265.663 43.6267 266.111 44.096C266.581 44.5653 266.815 45.1733 266.815 45.92C266.815 46.6027 266.581 47.1893 266.111 47.68C265.663 48.1493 265.109 48.384 264.447 48.384ZM277.46 48.384C276.009 48.384 274.697 48.064 273.524 47.424C272.372 46.7627 271.465 45.824 270.804 44.608C270.143 43.3707 269.812 41.888 269.812 40.16C269.812 38.4107 270.175 36.928 270.9 35.712C271.647 34.4747 272.617 33.536 273.812 32.896C275.007 32.2347 276.297 31.904 277.684 31.904C278.687 31.904 279.561 32.064 280.308 32.384C281.076 32.704 281.737 33.1307 282.292 33.664L280.5 35.936C280.159 35.6373 279.775 35.392 279.348 35.2C278.943 35.008 278.452 34.912 277.876 34.912C277.044 34.912 276.308 35.1253 275.668 35.552C275.028 35.9787 274.516 36.5973 274.132 37.408C273.769 38.1973 273.588 39.1147 273.588 40.16C273.588 41.2053 273.769 42.1227 274.132 42.912C274.495 43.7013 274.985 44.3093 275.604 44.736C276.244 45.1627 276.98 45.376 277.812 45.376C278.409 45.376 278.975 45.2587 279.508 45.024C280.063 44.7893 280.564 44.4907 281.012 44.128L282.516 46.368C281.876 46.9867 281.119 47.4773 280.244 47.84C279.369 48.2027 278.441 48.384 277.46 48.384ZM291.268 48.384C289.967 48.384 288.751 48.064 287.62 47.424C286.489 46.7627 285.572 45.824 284.868 44.608C284.164 43.3707 283.812 41.888 283.812 40.16C283.812 38.4107 284.164 36.928 284.868 35.712C285.572 34.4747 286.489 33.536 287.62 32.896C288.751 32.2347 289.967 31.904 291.268 31.904C292.591 31.904 293.817 32.2347 294.948 32.896C296.079 33.536 296.996 34.4747 297.7 35.712C298.404 36.928 298.756 38.4107 298.756 40.16C298.756 41.888 298.404 43.3707 297.7 44.608C296.996 45.824 296.079 46.7627 294.948 47.424C293.817 48.064 292.591 48.384 291.268 48.384ZM291.268 45.376C292.036 45.376 292.697 45.1627 293.252 44.736C293.807 44.3093 294.223 43.7013 294.5 42.912C294.799 42.1227 294.948 41.2053 294.948 40.16C294.948 39.1147 294.799 38.1973 294.5 37.408C294.223 36.5973 293.807 35.9787 293.252 35.552C292.697 35.1253 292.036 34.912 291.268 34.912C290.521 34.912 289.871 35.1253 289.316 35.552C288.761 35.9787 288.335 36.5973 288.036 37.408C287.737 38.1973 287.588 39.1147 287.588 40.16C287.588 41.2053 287.737 42.1227 288.036 42.912C288.335 43.7013 288.761 44.3093 289.316 44.736C289.871 45.1627 290.521 45.376 291.268 45.376ZM302.399 48V32.288H305.439L305.695 34.432H305.823C306.484 33.728 307.209 33.1307 307.999 32.64C308.788 32.1493 309.663 31.904 310.623 31.904C311.796 31.904 312.724 32.1493 313.407 32.64C314.089 33.1307 314.612 33.824 314.975 34.72C315.721 33.9093 316.5 33.2373 317.311 32.704C318.121 32.1707 319.028 31.904 320.031 31.904C321.695 31.904 322.911 32.448 323.679 33.536C324.468 34.624 324.863 36.16 324.863 38.144V48H321.183V38.624C321.183 37.3227 320.991 36.4053 320.607 35.872C320.223 35.3173 319.615 35.04 318.783 35.04C318.292 35.04 317.769 35.2 317.215 35.52C316.681 35.84 316.105 36.3413 315.487 37.024V48H311.807V38.624C311.807 37.3227 311.604 36.4053 311.199 35.872C310.815 35.3173 310.207 35.04 309.375 35.04C308.393 35.04 307.295 35.7013 306.079 37.024V48H302.399Z" fill="white"/>
<path d="M47.904 78V67.888H44.48V67.44H51.84V67.888H48.416V78H47.904ZM53.0516 78V70.352H53.4676L53.5316 71.792H53.5636C53.809 71.3227 54.113 70.9333 54.4756 70.624C54.8383 70.3147 55.2596 70.16 55.7396 70.16C55.8676 70.16 55.9903 70.1707 56.1076 70.192C56.225 70.2133 56.3476 70.256 56.4756 70.32L56.3156 70.736C56.2196 70.704 56.1236 70.6827 56.0276 70.672C55.9423 70.6507 55.825 70.64 55.6756 70.64C55.3236 70.64 54.9556 70.7947 54.5716 71.104C54.1876 71.4027 53.841 71.9307 53.5316 72.688V78H53.0516ZM59.2461 78.192C58.8515 78.192 58.4835 78.1227 58.1421 77.984C57.8115 77.8347 57.5448 77.6107 57.3421 77.312C57.1395 77.0027 57.0381 76.608 57.0381 76.128C57.0381 75.2747 57.4435 74.6293 58.2541 74.192C59.0648 73.744 60.3341 73.424 62.0621 73.232C62.0728 72.816 62.0301 72.4053 61.9341 72C61.8488 71.5947 61.6675 71.264 61.3901 71.008C61.1128 70.7413 60.7075 70.608 60.1741 70.608C59.6301 70.608 59.1395 70.7147 58.7021 70.928C58.2648 71.1307 57.9235 71.3227 57.6781 71.504L57.4221 71.152C57.5821 71.024 57.8008 70.8853 58.0781 70.736C58.3555 70.576 58.6755 70.4427 59.0381 70.336C59.4008 70.2187 59.7901 70.16 60.2061 70.16C60.8035 70.16 61.2728 70.2933 61.6141 70.56C61.9555 70.8267 62.1955 71.1787 62.3341 71.616C62.4728 72.0533 62.5421 72.528 62.5421 73.04V78H62.1261L62.0621 76.976H62.0301C61.6355 77.296 61.1981 77.5787 60.7181 77.824C60.2488 78.0693 59.7581 78.192 59.2461 78.192ZM59.2781 77.744C59.7475 77.744 60.2008 77.632 60.6381 77.408C61.0755 77.184 61.5501 76.8587 62.0621 76.432V73.648C60.9421 73.776 60.0515 73.952 59.3901 74.176C58.7395 74.3893 58.2701 74.656 57.9821 74.976C57.6941 75.296 57.5501 75.6747 57.5501 76.112C57.5501 76.6987 57.7208 77.12 58.0621 77.376C58.4141 77.6213 58.8195 77.744 59.2781 77.744ZM68.1474 78.192C67.4967 78.192 66.91 78.0373 66.3874 77.728C65.8754 77.408 65.47 76.9493 65.1714 76.352C64.8727 75.7547 64.7234 75.0347 64.7234 74.192C64.7234 73.3387 64.8834 72.6133 65.2034 72.016C65.5234 71.408 65.9394 70.9493 66.4514 70.64C66.974 70.32 67.5394 70.16 68.1474 70.16C68.6807 70.16 69.1234 70.2507 69.4754 70.432C69.8274 70.6133 70.1314 70.8427 70.3874 71.12L70.0994 71.408C69.8647 71.1627 69.582 70.9707 69.2514 70.832C68.9314 70.6827 68.5634 70.608 68.1474 70.608C67.6034 70.608 67.1127 70.7627 66.6754 71.072C66.238 71.3707 65.886 71.792 65.6194 72.336C65.3634 72.8693 65.2354 73.488 65.2354 74.192C65.2354 74.896 65.3527 75.5147 65.5874 76.048C65.8327 76.5813 66.174 76.9973 66.6114 77.296C67.0487 77.5947 67.5607 77.744 68.1474 77.744C68.5847 77.744 68.9847 77.664 69.3474 77.504C69.7207 77.3333 70.0354 77.1147 70.2914 76.848L70.5794 77.136C70.2594 77.456 69.8967 77.712 69.4914 77.904C69.0967 78.096 68.6487 78.192 68.1474 78.192ZM72.536 78V66.448H73.016V75.216H73.048L77.016 70.352H77.592L75.128 73.36L78.04 78H77.496L74.84 73.744L73.016 75.888V78H72.536ZM84.3495 78L81.9175 67.44H82.4615L83.8375 73.84C83.9655 74.416 84.0935 74.992 84.2215 75.568C84.3495 76.144 84.4775 76.72 84.6055 77.296H84.6695C84.7975 76.72 84.9308 76.144 85.0695 75.568C85.2188 74.992 85.3628 74.416 85.5015 73.84L87.2615 67.44H87.8375L89.5335 73.84C89.6828 74.416 89.8268 74.992 89.9655 75.568C90.1148 76.144 90.2588 76.72 90.3975 77.296H90.4615C90.5895 76.72 90.7122 76.144 90.8295 75.568C90.9468 74.992 91.0695 74.416 91.1975 73.84L92.6375 67.44H93.1495L90.6855 78H90.1735L88.1575 70.416C88.0615 70 87.9655 69.6053 87.8695 69.232C87.7735 68.8587 87.6775 68.464 87.5815 68.048H87.5175C87.4215 68.464 87.3202 68.8587 87.2135 69.232C87.1068 69.6053 87.0055 70 86.9095 70.416L84.8615 78H84.3495ZM98.0083 78.192C97.3683 78.192 96.7816 78.032 96.2483 77.712C95.7256 77.392 95.3043 76.9333 94.9843 76.336C94.6749 75.7387 94.5203 75.024 94.5203 74.192C94.5203 73.36 94.6749 72.6453 94.9843 72.048C95.3043 71.44 95.7149 70.976 96.2163 70.656C96.7176 70.3253 97.2509 70.16 97.8163 70.16C98.4029 70.16 98.9096 70.2987 99.3363 70.576C99.7736 70.8427 100.11 71.2373 100.344 71.76C100.579 72.2827 100.696 72.9227 100.696 73.68C100.696 73.7547 100.696 73.8347 100.696 73.92C100.696 74.0053 100.686 74.096 100.664 74.192H94.7763V73.744H100.216C100.216 72.688 99.9976 71.904 99.5603 71.392C99.1229 70.8693 98.5416 70.608 97.8163 70.608C97.3683 70.608 96.9309 70.7413 96.5043 71.008C96.0776 71.264 95.7256 71.6587 95.4483 72.192C95.1709 72.7147 95.0323 73.3707 95.0323 74.16C95.0323 74.8853 95.1603 75.52 95.4163 76.064C95.6829 76.5973 96.0456 77.0133 96.5043 77.312C96.9629 77.6 97.4749 77.744 98.0403 77.744C98.4776 77.744 98.8723 77.6853 99.2243 77.568C99.5763 77.4507 99.8856 77.296 100.152 77.104L100.376 77.456C100.088 77.648 99.7629 77.8187 99.4003 77.968C99.0483 78.1173 98.5843 78.192 98.0083 78.192ZM105.681 78.192C105.318 78.192 104.929 78.1067 104.513 77.936C104.108 77.7547 103.718 77.52 103.345 77.232H103.313L103.249 78H102.833V66.448H103.313V69.872L103.281 71.408C103.686 71.0667 104.118 70.7733 104.577 70.528C105.046 70.2827 105.521 70.16 106.001 70.16C106.694 70.16 107.265 70.32 107.713 70.64C108.172 70.96 108.513 71.4133 108.737 72C108.961 72.5867 109.073 73.2747 109.073 74.064C109.073 74.928 108.913 75.6693 108.593 76.288C108.284 76.896 107.873 77.3653 107.361 77.696C106.849 78.0267 106.289 78.192 105.681 78.192ZM105.713 77.744C106.268 77.744 106.758 77.5893 107.185 77.28C107.612 76.96 107.948 76.5227 108.193 75.968C108.438 75.4133 108.561 74.7787 108.561 74.064C108.561 73.4133 108.476 72.8267 108.305 72.304C108.134 71.7813 107.857 71.3707 107.473 71.072C107.1 70.7627 106.598 70.608 105.969 70.608C105.574 70.608 105.153 70.7253 104.705 70.96C104.257 71.184 103.793 71.5147 103.313 71.952V76.688C103.761 77.072 104.198 77.344 104.625 77.504C105.052 77.664 105.414 77.744 105.713 77.744ZM113.269 78L117.045 67.44H117.493L121.269 78H120.725L118.517 71.664C118.293 71.024 118.08 70.416 117.877 69.84C117.685 69.2533 117.493 68.6347 117.301 67.984H117.237C117.045 68.6347 116.848 69.2533 116.645 69.84C116.453 70.416 116.245 71.024 116.021 71.664L113.781 78H113.269ZM114.901 74.224V73.776H119.589V74.224H114.901ZM122.958 78V70.352H123.374L123.438 71.568H123.47C123.875 71.1627 124.286 70.8267 124.702 70.56C125.129 70.2933 125.603 70.16 126.126 70.16C126.915 70.16 127.497 70.4 127.87 70.88C128.243 71.3493 128.43 72.08 128.43 73.072V78H127.95V73.136C127.95 72.2827 127.806 71.648 127.518 71.232C127.23 70.816 126.755 70.608 126.094 70.608C125.614 70.608 125.177 70.736 124.782 70.992C124.387 71.248 123.939 71.632 123.438 72.144V78H122.958ZM133.012 78.192C132.617 78.192 132.249 78.1227 131.908 77.984C131.577 77.8347 131.31 77.6107 131.108 77.312C130.905 77.0027 130.804 76.608 130.804 76.128C130.804 75.2747 131.209 74.6293 132.02 74.192C132.83 73.744 134.1 73.424 135.828 73.232C135.838 72.816 135.796 72.4053 135.7 72C135.614 71.5947 135.433 71.264 135.156 71.008C134.878 70.7413 134.473 70.608 133.94 70.608C133.396 70.608 132.905 70.7147 132.468 70.928C132.03 71.1307 131.689 71.3227 131.444 71.504L131.188 71.152C131.348 71.024 131.566 70.8853 131.844 70.736C132.121 70.576 132.441 70.4427 132.804 70.336C133.166 70.2187 133.556 70.16 133.972 70.16C134.569 70.16 135.038 70.2933 135.38 70.56C135.721 70.8267 135.961 71.1787 136.1 71.616C136.238 72.0533 136.308 72.528 136.308 73.04V78H135.892L135.828 76.976H135.796C135.401 77.296 134.964 77.5787 134.484 77.824C134.014 78.0693 133.524 78.192 133.012 78.192ZM133.044 77.744C133.513 77.744 133.966 77.632 134.404 77.408C134.841 77.184 135.316 76.8587 135.828 76.432V73.648C134.708 73.776 133.817 73.952 133.156 74.176C132.505 74.3893 132.036 74.656 131.748 74.976C131.46 75.296 131.316 75.6747 131.316 76.112C131.316 76.6987 131.486 77.12 131.828 77.376C132.18 77.6213 132.585 77.744 133.044 77.744ZM139.945 78.128C139.774 78.128 139.63 78.0907 139.513 78.016C139.396 77.952 139.305 77.8453 139.241 77.696C139.188 77.5467 139.161 77.3493 139.161 77.104V66.448H139.641V77.2C139.641 77.3707 139.673 77.4933 139.737 77.568C139.801 77.6427 139.886 77.68 139.993 77.68C140.025 77.68 140.057 77.68 140.089 77.68C140.132 77.6693 140.185 77.6587 140.249 77.648L140.345 78.032C140.281 78.064 140.217 78.0853 140.153 78.096C140.089 78.1173 140.02 78.128 139.945 78.128ZM142.368 81.552C142.241 81.552 142.107 81.536 141.969 81.504C141.841 81.472 141.729 81.4347 141.633 81.392L141.793 80.944C141.878 80.976 141.974 81.0027 142.081 81.024C142.198 81.056 142.305 81.072 142.401 81.072C142.881 81.072 143.291 80.864 143.633 80.448C143.974 80.032 144.246 79.5147 144.449 78.896L144.673 78.192L141.505 70.352H142.049L144.001 75.376C144.129 75.696 144.267 76.048 144.417 76.432C144.577 76.816 144.726 77.1787 144.865 77.52H144.929C145.057 77.1787 145.185 76.816 145.312 76.432C145.441 76.048 145.558 75.696 145.665 75.376L147.393 70.352H147.905L144.833 79.088C144.705 79.4827 144.529 79.8667 144.305 80.24C144.091 80.624 143.825 80.9387 143.505 81.184C143.185 81.4293 142.806 81.552 142.368 81.552ZM151.582 78.128C150.878 78.128 150.403 77.9253 150.158 77.52C149.912 77.104 149.79 76.5707 149.79 75.92V70.8H148.574V70.416L149.79 70.352L149.854 67.792H150.27V70.352H152.542V70.8H150.27V75.984C150.27 76.4747 150.355 76.88 150.526 77.2C150.696 77.52 151.059 77.68 151.614 77.68C151.763 77.68 151.918 77.664 152.078 77.632C152.238 77.5893 152.414 77.52 152.606 77.424L152.798 77.776C152.595 77.8827 152.387 77.968 152.174 78.032C151.96 78.096 151.763 78.128 151.582 78.128ZM154.458 78V70.352H154.938V78H154.458ZM154.682 68.4C154.543 68.4 154.421 68.3467 154.314 68.24C154.218 68.1333 154.17 67.9947 154.17 67.824C154.17 67.664 154.218 67.536 154.314 67.44C154.421 67.3333 154.549 67.28 154.698 67.28C154.837 67.28 154.954 67.3333 155.05 67.44C155.146 67.536 155.194 67.664 155.194 67.824C155.194 67.9947 155.146 68.1333 155.05 68.24C154.954 68.3467 154.831 68.4 154.682 68.4ZM160.757 78.192C160.106 78.192 159.519 78.0373 158.997 77.728C158.485 77.408 158.079 76.9493 157.781 76.352C157.482 75.7547 157.333 75.0347 157.333 74.192C157.333 73.3387 157.493 72.6133 157.813 72.016C158.133 71.408 158.549 70.9493 159.061 70.64C159.583 70.32 160.149 70.16 160.757 70.16C161.29 70.16 161.733 70.2507 162.085 70.432C162.437 70.6133 162.741 70.8427 162.997 71.12L162.709 71.408C162.474 71.1627 162.191 70.9707 161.861 70.832C161.541 70.6827 161.173 70.608 160.757 70.608C160.213 70.608 159.722 70.7627 159.285 71.072C158.847 71.3707 158.495 71.792 158.229 72.336C157.973 72.8693 157.845 73.488 157.845 74.192C157.845 74.896 157.962 75.5147 158.197 76.048C158.442 76.5813 158.783 76.9973 159.221 77.296C159.658 77.5947 160.17 77.744 160.757 77.744C161.194 77.744 161.594 77.664 161.957 77.504C162.33 77.3333 162.645 77.1147 162.901 76.848L163.189 77.136C162.869 77.456 162.506 77.712 162.101 77.904C161.706 78.096 161.258 78.192 160.757 78.192ZM166.937 78.192C166.329 78.192 165.791 78.096 165.321 77.904C164.863 77.712 164.473 77.456 164.153 77.136L164.441 76.816C164.761 77.0827 165.108 77.3067 165.481 77.488C165.865 77.6587 166.361 77.744 166.969 77.744C167.609 77.744 168.095 77.5787 168.425 77.248C168.756 76.9173 168.921 76.5387 168.921 76.112C168.921 75.7707 168.82 75.488 168.617 75.264C168.425 75.04 168.18 74.8533 167.881 74.704C167.593 74.5547 167.3 74.4267 167.001 74.32C166.607 74.1813 166.223 74.0267 165.849 73.856C165.476 73.6853 165.167 73.4667 164.921 73.2C164.687 72.9333 164.569 72.5813 164.569 72.144C164.569 71.6107 164.772 71.1467 165.177 70.752C165.593 70.3573 166.191 70.16 166.969 70.16C167.385 70.16 167.775 70.2347 168.137 70.384C168.5 70.5227 168.815 70.704 169.081 70.928L168.793 71.248C168.537 71.0667 168.265 70.9173 167.977 70.8C167.689 70.672 167.343 70.608 166.937 70.608C166.297 70.608 165.828 70.768 165.529 71.088C165.231 71.3973 165.081 71.7387 165.081 72.112C165.081 72.4213 165.167 72.6773 165.337 72.88C165.508 73.072 165.727 73.2373 165.993 73.376C166.271 73.504 166.564 73.6267 166.873 73.744C167.279 73.904 167.679 74.0693 168.073 74.24C168.468 74.4 168.793 74.624 169.049 74.912C169.305 75.1893 169.433 75.5787 169.433 76.08C169.433 76.4533 169.337 76.8 169.145 77.12C168.953 77.44 168.671 77.7013 168.297 77.904C167.924 78.096 167.471 78.192 166.937 78.192ZM176.803 78.192C176.269 78.192 175.773 78.08 175.315 77.856C174.867 77.6213 174.504 77.2907 174.227 76.864C173.96 76.4373 173.827 75.9307 173.827 75.344C173.827 74.864 173.939 74.432 174.163 74.048C174.397 73.664 174.691 73.312 175.043 72.992C175.405 72.672 175.789 72.368 176.195 72.08C176.6 71.7813 176.979 71.4827 177.331 71.184C177.693 70.8853 177.987 70.5707 178.211 70.24C178.445 69.9093 178.563 69.5413 178.563 69.136C178.563 68.784 178.472 68.4587 178.291 68.16C178.109 67.8507 177.795 67.696 177.347 67.696C176.856 67.696 176.472 67.8773 176.195 68.24C175.917 68.592 175.779 69.0187 175.779 69.52C175.779 70.0747 175.896 70.6613 176.131 71.28C176.365 71.888 176.675 72.5013 177.059 73.12C177.443 73.728 177.869 74.3093 178.339 74.864C178.819 75.408 179.299 75.888 179.779 76.304C180.184 76.656 180.573 76.9547 180.947 77.2C181.331 77.4347 181.688 77.616 182.019 77.744L181.827 78.192C181.496 78.064 181.133 77.8773 180.739 77.632C180.344 77.3867 179.928 77.072 179.491 76.688C178.979 76.2293 178.472 75.712 177.971 75.136C177.48 74.56 177.032 73.952 176.627 73.312C176.221 72.672 175.896 72.032 175.651 71.392C175.416 70.752 175.299 70.1387 175.299 69.552C175.299 69.104 175.384 68.7093 175.555 68.368C175.736 68.016 175.981 67.744 176.291 67.552C176.611 67.3493 176.973 67.248 177.379 67.248C177.923 67.248 178.333 67.424 178.611 67.776C178.899 68.128 179.043 68.5707 179.043 69.104C179.043 69.5413 178.931 69.9413 178.707 70.304C178.483 70.656 178.189 70.9867 177.827 71.296C177.475 71.6053 177.096 71.9093 176.691 72.208C176.285 72.5067 175.901 72.8107 175.539 73.12C175.187 73.4293 174.899 73.7653 174.675 74.128C174.451 74.48 174.339 74.8747 174.339 75.312C174.339 75.8027 174.451 76.2293 174.675 76.592C174.909 76.9547 175.213 77.2373 175.587 77.44C175.971 77.6427 176.387 77.744 176.835 77.744C177.336 77.744 177.805 77.616 178.243 77.36C178.68 77.0933 179.075 76.7627 179.427 76.368C179.875 75.856 180.253 75.2747 180.563 74.624C180.883 73.9733 181.144 73.2747 181.347 72.528H181.827C181.603 73.3067 181.32 74.0533 180.979 74.768C180.648 75.472 180.248 76.1013 179.779 76.656C179.384 77.104 178.947 77.472 178.467 77.76C177.987 78.048 177.432 78.192 176.803 78.192ZM190.654 78.192C189.79 78.192 189.028 77.968 188.366 77.52C187.716 77.0613 187.209 76.4213 186.846 75.6C186.484 74.768 186.302 73.7973 186.302 72.688C186.302 71.856 186.404 71.1093 186.606 70.448C186.82 69.776 187.124 69.2 187.518 68.72C187.913 68.24 188.382 67.8773 188.926 67.632C189.47 67.376 190.078 67.248 190.75 67.248C191.348 67.248 191.876 67.3707 192.334 67.616C192.804 67.8613 193.172 68.1547 193.438 68.496L193.118 68.816C192.83 68.4747 192.484 68.208 192.078 68.016C191.673 67.824 191.23 67.728 190.75 67.728C189.94 67.728 189.241 67.9307 188.654 68.336C188.078 68.7413 187.63 69.3173 187.31 70.064C187.001 70.8 186.846 71.6747 186.846 72.688C186.846 73.7013 187.001 74.5867 187.31 75.344C187.62 76.0907 188.062 76.672 188.638 77.088C189.214 77.504 189.897 77.712 190.686 77.712C191.252 77.712 191.753 77.6107 192.19 77.408C192.638 77.1947 193.06 76.864 193.454 76.416L193.758 76.688C193.364 77.1467 192.921 77.5147 192.43 77.792C191.95 78.0587 191.358 78.192 190.654 78.192ZM197.946 78.192C197.168 78.192 196.586 77.9573 196.202 77.488C195.829 77.008 195.642 76.272 195.642 75.28V70.352H196.122V75.216C196.122 76.0587 196.266 76.6933 196.554 77.12C196.853 77.536 197.328 77.744 197.978 77.744C198.458 77.744 198.896 77.6107 199.29 77.344C199.685 77.0773 200.122 76.656 200.602 76.08V70.352H201.082V78H200.666L200.602 76.688H200.57C200.186 77.136 199.786 77.4987 199.37 77.776C198.954 78.0533 198.48 78.192 197.946 78.192ZM205.953 78.192C205.345 78.192 204.806 78.096 204.337 77.904C203.878 77.712 203.489 77.456 203.169 77.136L203.457 76.816C203.777 77.0827 204.124 77.3067 204.497 77.488C204.881 77.6587 205.377 77.744 205.985 77.744C206.625 77.744 207.11 77.5787 207.441 77.248C207.772 76.9173 207.937 76.5387 207.937 76.112C207.937 75.7707 207.836 75.488 207.633 75.264C207.441 75.04 207.196 74.8533 206.897 74.704C206.609 74.5547 206.316 74.4267 206.017 74.32C205.622 74.1813 205.238 74.0267 204.865 73.856C204.492 73.6853 204.182 73.4667 203.937 73.2C203.702 72.9333 203.585 72.5813 203.585 72.144C203.585 71.6107 203.788 71.1467 204.193 70.752C204.609 70.3573 205.206 70.16 205.985 70.16C206.401 70.16 206.79 70.2347 207.153 70.384C207.516 70.5227 207.83 70.704 208.097 70.928L207.809 71.248C207.553 71.0667 207.281 70.9173 206.993 70.8C206.705 70.672 206.358 70.608 205.953 70.608C205.313 70.608 204.844 70.768 204.545 71.088C204.246 71.3973 204.097 71.7387 204.097 72.112C204.097 72.4213 204.182 72.6773 204.353 72.88C204.524 73.072 204.742 73.2373 205.009 73.376C205.286 73.504 205.58 73.6267 205.889 73.744C206.294 73.904 206.694 74.0693 207.089 74.24C207.484 74.4 207.809 74.624 208.065 74.912C208.321 75.1893 208.449 75.5787 208.449 76.08C208.449 76.4533 208.353 76.8 208.161 77.12C207.969 77.44 207.686 77.7013 207.313 77.904C206.94 78.096 206.486 78.192 205.953 78.192ZM212.207 78.128C211.503 78.128 211.028 77.9253 210.783 77.52C210.537 77.104 210.415 76.5707 210.415 75.92V70.8H209.199V70.416L210.415 70.352L210.479 67.792H210.895V70.352H213.167V70.8H210.895V75.984C210.895 76.4747 210.98 76.88 211.151 77.2C211.321 77.52 211.684 77.68 212.239 77.68C212.388 77.68 212.543 77.664 212.703 77.632C212.863 77.5893 213.039 77.52 213.231 77.424L213.423 77.776C213.22 77.8827 213.012 77.968 212.799 78.032C212.585 78.096 212.388 78.128 212.207 78.128ZM217.647 78.192C217.039 78.192 216.473 78.0373 215.951 77.728C215.439 77.408 215.028 76.9493 214.719 76.352C214.409 75.7547 214.255 75.0347 214.255 74.192C214.255 73.3387 214.409 72.6133 214.719 72.016C215.028 71.408 215.439 70.9493 215.951 70.64C216.473 70.32 217.039 70.16 217.647 70.16C218.255 70.16 218.815 70.32 219.327 70.64C219.839 70.9493 220.249 71.408 220.559 72.016C220.879 72.6133 221.039 73.3387 221.039 74.192C221.039 75.0347 220.879 75.7547 220.559 76.352C220.249 76.9493 219.839 77.408 219.327 77.728C218.815 78.0373 218.255 78.192 217.647 78.192ZM217.647 77.744C218.191 77.744 218.681 77.5947 219.119 77.296C219.556 76.9973 219.897 76.5813 220.143 76.048C220.399 75.5147 220.527 74.896 220.527 74.192C220.527 73.488 220.399 72.8693 220.143 72.336C219.897 71.792 219.556 71.3707 219.119 71.072C218.681 70.7627 218.191 70.608 217.647 70.608C217.103 70.608 216.612 70.7627 216.175 71.072C215.748 71.3707 215.407 71.792 215.151 72.336C214.895 72.8693 214.767 73.488 214.767 74.192C214.767 74.896 214.895 75.5147 215.151 76.048C215.407 76.5813 215.748 76.9973 216.175 77.296C216.612 77.5947 217.103 77.744 217.647 77.744ZM223.442 78V70.352H223.858L223.922 71.568H223.954C224.306 71.1627 224.696 70.8267 225.122 70.56C225.549 70.2933 225.97 70.16 226.386 70.16C227.016 70.16 227.49 70.3093 227.81 70.608C228.141 70.896 228.37 71.28 228.498 71.76C228.946 71.2587 229.389 70.8693 229.826 70.592C230.264 70.304 230.696 70.16 231.122 70.16C231.88 70.16 232.445 70.4 232.818 70.88C233.202 71.3493 233.394 72.08 233.394 73.072V78H232.914V73.136C232.914 72.2827 232.765 71.648 232.466 71.232C232.178 70.816 231.72 70.608 231.09 70.608C230.706 70.608 230.317 70.736 229.922 70.992C229.528 71.248 229.106 71.632 228.658 72.144V78H228.178V73.136C228.178 72.2827 228.029 71.648 227.73 71.232C227.442 70.816 226.984 70.608 226.354 70.608C225.629 70.608 224.818 71.12 223.922 72.144V78H223.442ZM239.6 78V67.44H245.264V67.888H240.112V72.144H244.432V72.592H240.112V77.552H245.424V78H239.6ZM249.104 78L246.192 70.352H246.736L248.56 75.312C248.688 75.6747 248.821 76.0427 248.96 76.416C249.099 76.7893 249.232 77.1467 249.36 77.488H249.424C249.552 77.1467 249.685 76.7893 249.824 76.416C249.963 76.0427 250.096 75.6747 250.224 75.312L252.048 70.352H252.56L249.68 78H249.104ZM257.102 78.192C256.462 78.192 255.875 78.032 255.342 77.712C254.819 77.392 254.398 76.9333 254.078 76.336C253.769 75.7387 253.614 75.024 253.614 74.192C253.614 73.36 253.769 72.6453 254.078 72.048C254.398 71.44 254.809 70.976 255.31 70.656C255.811 70.3253 256.345 70.16 256.91 70.16C257.497 70.16 258.003 70.2987 258.43 70.576C258.867 70.8427 259.203 71.2373 259.438 71.76C259.673 72.2827 259.79 72.9227 259.79 73.68C259.79 73.7547 259.79 73.8347 259.79 73.92C259.79 74.0053 259.779 74.096 259.758 74.192H253.87V73.744H259.31C259.31 72.688 259.091 71.904 258.654 71.392C258.217 70.8693 257.635 70.608 256.91 70.608C256.462 70.608 256.025 70.7413 255.598 71.008C255.171 71.264 254.819 71.6587 254.542 72.192C254.265 72.7147 254.126 73.3707 254.126 74.16C254.126 74.8853 254.254 75.52 254.51 76.064C254.777 76.5973 255.139 77.0133 255.598 77.312C256.057 77.6 256.569 77.744 257.134 77.744C257.571 77.744 257.966 77.6853 258.318 77.568C258.67 77.4507 258.979 77.296 259.246 77.104L259.47 77.456C259.182 77.648 258.857 77.8187 258.494 77.968C258.142 78.1173 257.678 78.192 257.102 78.192ZM261.927 78V70.352H262.343L262.407 71.568H262.439C262.844 71.1627 263.255 70.8267 263.671 70.56C264.097 70.2933 264.572 70.16 265.095 70.16C265.884 70.16 266.465 70.4 266.839 70.88C267.212 71.3493 267.399 72.08 267.399 73.072V78H266.919V73.136C266.919 72.2827 266.775 71.648 266.487 71.232C266.199 70.816 265.724 70.608 265.063 70.608C264.583 70.608 264.145 70.736 263.751 70.992C263.356 71.248 262.908 71.632 262.407 72.144V78H261.927ZM272.301 78.128C271.597 78.128 271.122 77.9253 270.877 77.52C270.631 77.104 270.509 76.5707 270.509 75.92V70.8H269.293V70.416L270.509 70.352L270.573 67.792H270.989V70.352H273.261V70.8H270.989V75.984C270.989 76.4747 271.074 76.88 271.245 77.2C271.415 77.52 271.778 77.68 272.333 77.68C272.482 77.68 272.637 77.664 272.797 77.632C272.957 77.5893 273.133 77.52 273.325 77.424L273.516 77.776C273.314 77.8827 273.106 77.968 272.893 78.032C272.679 78.096 272.482 78.128 272.301 78.128ZM276.812 78.192C276.204 78.192 275.666 78.096 275.196 77.904C274.738 77.712 274.348 77.456 274.028 77.136L274.316 76.816C274.636 77.0827 274.983 77.3067 275.356 77.488C275.74 77.6587 276.236 77.744 276.844 77.744C277.484 77.744 277.97 77.5787 278.3 77.248C278.631 76.9173 278.796 76.5387 278.796 76.112C278.796 75.7707 278.695 75.488 278.492 75.264C278.3 75.04 278.055 74.8533 277.756 74.704C277.468 74.5547 277.175 74.4267 276.876 74.32C276.482 74.1813 276.098 74.0267 275.724 73.856C275.351 73.6853 275.042 73.4667 274.796 73.2C274.562 72.9333 274.444 72.5813 274.444 72.144C274.444 71.6107 274.647 71.1467 275.052 70.752C275.468 70.3573 276.066 70.16 276.844 70.16C277.26 70.16 277.65 70.2347 278.012 70.384C278.375 70.5227 278.69 70.704 278.956 70.928L278.668 71.248C278.412 71.0667 278.14 70.9173 277.852 70.8C277.564 70.672 277.218 70.608 276.812 70.608C276.172 70.608 275.703 70.768 275.404 71.088C275.106 71.3973 274.956 71.7387 274.956 72.112C274.956 72.4213 275.042 72.6773 275.212 72.88C275.383 73.072 275.602 73.2373 275.868 73.376C276.146 73.504 276.439 73.6267 276.748 73.744C277.154 73.904 277.554 74.0693 277.948 74.24C278.343 74.4 278.668 74.624 278.924 74.912C279.18 75.1893 279.308 75.5787 279.308 76.08C279.308 76.4533 279.212 76.8 279.02 77.12C278.828 77.44 278.546 77.7013 278.172 77.904C277.799 78.096 277.346 78.192 276.812 78.192ZM280.851 80.4L280.659 80.016C281 79.824 281.277 79.5573 281.491 79.216C281.704 78.8853 281.811 78.4907 281.811 78.032L281.587 77.168L282.131 77.84C282.067 77.9467 281.987 78.016 281.891 78.048C281.805 78.08 281.715 78.096 281.619 78.096C281.459 78.096 281.32 78.048 281.203 77.952C281.096 77.856 281.043 77.712 281.043 77.52C281.043 77.328 281.101 77.184 281.219 77.088C281.347 76.992 281.48 76.944 281.619 76.944C281.832 76.944 282.003 77.0347 282.131 77.216C282.259 77.3867 282.323 77.6267 282.323 77.936C282.323 78.48 282.179 78.96 281.891 79.376C281.613 79.8027 281.267 80.144 280.851 80.4ZM287.958 78V70.352H288.438V78H287.958ZM288.182 68.4C288.043 68.4 287.921 68.3467 287.814 68.24C287.718 68.1333 287.67 67.9947 287.67 67.824C287.67 67.664 287.718 67.536 287.814 67.44C287.921 67.3333 288.049 67.28 288.198 67.28C288.337 67.28 288.454 67.3333 288.55 67.44C288.646 67.536 288.694 67.664 288.694 67.824C288.694 67.9947 288.646 68.1333 288.55 68.24C288.454 68.3467 288.331 68.4 288.182 68.4ZM291.505 78V70.352H291.921L291.985 71.568H292.017C292.422 71.1627 292.833 70.8267 293.249 70.56C293.675 70.2933 294.15 70.16 294.673 70.16C295.462 70.16 296.043 70.4 296.417 70.88C296.79 71.3493 296.977 72.08 296.977 73.072V78H296.497V73.136C296.497 72.2827 296.353 71.648 296.065 71.232C295.777 70.816 295.302 70.608 294.641 70.608C294.161 70.608 293.723 70.736 293.329 70.992C292.934 71.248 292.486 71.632 291.985 72.144V78H291.505ZM305.274 78.192C304.73 78.192 304.255 78.1173 303.85 77.968C303.455 77.8187 303.114 77.6373 302.826 77.424C302.538 77.2 302.287 76.976 302.074 76.752L302.394 76.4C302.703 76.7307 303.082 77.04 303.53 77.328C303.978 77.6053 304.57 77.744 305.306 77.744C306.031 77.744 306.628 77.5253 307.098 77.088C307.567 76.64 307.802 76.0587 307.802 75.344C307.802 74.8533 307.674 74.4213 307.418 74.048C307.172 73.6747 306.778 73.3813 306.234 73.168C305.69 72.9547 304.986 72.848 304.122 72.848V72.368C304.932 72.368 305.578 72.2613 306.058 72.048C306.538 71.8347 306.884 71.552 307.098 71.2C307.311 70.848 307.418 70.4587 307.418 70.032C307.418 69.424 307.22 68.9387 306.826 68.576C306.431 68.2027 305.903 68.016 305.242 68.016C304.762 68.016 304.314 68.128 303.898 68.352C303.482 68.576 303.13 68.848 302.842 69.168L302.522 68.816C302.863 68.4747 303.252 68.1813 303.69 67.936C304.138 67.6907 304.655 67.568 305.242 67.568C305.743 67.568 306.196 67.664 306.602 67.856C307.007 68.048 307.327 68.3253 307.562 68.688C307.807 69.0507 307.93 69.488 307.93 70C307.93 70.6827 307.738 71.2373 307.354 71.664C306.98 72.08 306.511 72.3787 305.946 72.56V72.624C306.372 72.7093 306.762 72.8693 307.114 73.104C307.476 73.3387 307.764 73.6427 307.978 74.016C308.202 74.3893 308.314 74.8213 308.314 75.312C308.314 75.8987 308.18 76.4107 307.914 76.848C307.647 77.2747 307.284 77.6053 306.826 77.84C306.367 78.0747 305.85 78.192 305.274 78.192ZM312.917 78.192C311.957 78.192 311.221 77.728 310.709 76.8C310.197 75.8613 309.941 74.544 309.941 72.848C309.941 71.152 310.197 69.8507 310.709 68.944C311.221 68.0267 311.957 67.568 312.917 67.568C313.877 67.568 314.613 68.0267 315.125 68.944C315.637 69.8507 315.893 71.152 315.893 72.848C315.893 74.544 315.637 75.8613 315.125 76.8C314.613 77.728 313.877 78.192 312.917 78.192ZM312.917 77.744C313.418 77.744 313.85 77.5573 314.213 77.184C314.586 76.8107 314.874 76.2613 315.077 75.536C315.279 74.8 315.381 73.904 315.381 72.848C315.381 71.792 315.279 70.9067 315.077 70.192C314.874 69.4667 314.586 68.9227 314.213 68.56C313.85 68.1973 313.418 68.016 312.917 68.016C312.415 68.016 311.978 68.1973 311.605 68.56C311.242 68.9227 310.959 69.4667 310.757 70.192C310.554 70.9067 310.453 71.792 310.453 72.848C310.453 73.904 310.554 74.8 310.757 75.536C310.959 76.2613 311.242 76.8107 311.605 77.184C311.978 77.5573 312.415 77.744 312.917 77.744ZM323.219 78.192C322.611 78.192 322.072 78.096 321.603 77.904C321.144 77.712 320.755 77.456 320.435 77.136L320.723 76.816C321.043 77.0827 321.389 77.3067 321.763 77.488C322.147 77.6587 322.643 77.744 323.251 77.744C323.891 77.744 324.376 77.5787 324.707 77.248C325.037 76.9173 325.203 76.5387 325.203 76.112C325.203 75.7707 325.101 75.488 324.899 75.264C324.707 75.04 324.461 74.8533 324.163 74.704C323.875 74.5547 323.581 74.4267 323.283 74.32C322.888 74.1813 322.504 74.0267 322.131 73.856C321.757 73.6853 321.448 73.4667 321.203 73.2C320.968 72.9333 320.851 72.5813 320.851 72.144C320.851 71.6107 321.053 71.1467 321.459 70.752C321.875 70.3573 322.472 70.16 323.251 70.16C323.667 70.16 324.056 70.2347 324.419 70.384C324.781 70.5227 325.096 70.704 325.363 70.928L325.075 71.248C324.819 71.0667 324.547 70.9173 324.259 70.8C323.971 70.672 323.624 70.608 323.219 70.608C322.579 70.608 322.109 70.768 321.811 71.088C321.512 71.3973 321.363 71.7387 321.363 72.112C321.363 72.4213 321.448 72.6773 321.619 72.88C321.789 73.072 322.008 73.2373 322.275 73.376C322.552 73.504 322.845 73.6267 323.155 73.744C323.56 73.904 323.96 74.0693 324.355 74.24C324.749 74.4 325.075 74.624 325.331 74.912C325.587 75.1893 325.715 75.5787 325.715 76.08C325.715 76.4533 325.619 76.8 325.427 77.12C325.235 77.44 324.952 77.7013 324.579 77.904C324.205 78.096 323.752 78.192 323.219 78.192ZM330.649 78.192C330.009 78.192 329.422 78.032 328.889 77.712C328.366 77.392 327.945 76.9333 327.625 76.336C327.316 75.7387 327.161 75.024 327.161 74.192C327.161 73.36 327.316 72.6453 327.625 72.048C327.945 71.44 328.356 70.976 328.857 70.656C329.358 70.3253 329.892 70.16 330.457 70.16C331.044 70.16 331.55 70.2987 331.977 70.576C332.414 70.8427 332.75 71.2373 332.985 71.76C333.22 72.2827 333.337 72.9227 333.337 73.68C333.337 73.7547 333.337 73.8347 333.337 73.92C333.337 74.0053 333.326 74.096 333.305 74.192H327.417V73.744H332.857C332.857 72.688 332.638 71.904 332.201 71.392C331.764 70.8693 331.182 70.608 330.457 70.608C330.009 70.608 329.572 70.7413 329.145 71.008C328.718 71.264 328.366 71.6587 328.089 72.192C327.812 72.7147 327.673 73.3707 327.673 74.16C327.673 74.8853 327.801 75.52 328.057 76.064C328.324 76.5973 328.686 77.0133 329.145 77.312C329.604 77.6 330.116 77.744 330.681 77.744C331.118 77.744 331.513 77.6853 331.865 77.568C332.217 77.4507 332.526 77.296 332.793 77.104L333.017 77.456C332.729 77.648 332.404 77.8187 332.041 77.968C331.689 78.1173 331.225 78.192 330.649 78.192ZM338.226 78.192C337.575 78.192 336.988 78.0373 336.466 77.728C335.954 77.408 335.548 76.9493 335.25 76.352C334.951 75.7547 334.802 75.0347 334.802 74.192C334.802 73.3387 334.962 72.6133 335.282 72.016C335.602 71.408 336.018 70.9493 336.53 70.64C337.052 70.32 337.618 70.16 338.226 70.16C338.759 70.16 339.202 70.2507 339.554 70.432C339.906 70.6133 340.21 70.8427 340.466 71.12L340.178 71.408C339.943 71.1627 339.66 70.9707 339.33 70.832C339.01 70.6827 338.642 70.608 338.226 70.608C337.682 70.608 337.191 70.7627 336.754 71.072C336.316 71.3707 335.964 71.792 335.698 72.336C335.442 72.8693 335.314 73.488 335.314 74.192C335.314 74.896 335.431 75.5147 335.666 76.048C335.911 76.5813 336.252 76.9973 336.69 77.296C337.127 77.5947 337.639 77.744 338.226 77.744C338.663 77.744 339.063 77.664 339.426 77.504C339.799 77.3333 340.114 77.1147 340.37 76.848L340.658 77.136C340.338 77.456 339.975 77.712 339.57 77.904C339.175 78.096 338.727 78.192 338.226 78.192ZM345.069 78.192C344.461 78.192 343.895 78.0373 343.373 77.728C342.861 77.408 342.45 76.9493 342.141 76.352C341.831 75.7547 341.677 75.0347 341.677 74.192C341.677 73.3387 341.831 72.6133 342.141 72.016C342.45 71.408 342.861 70.9493 343.373 70.64C343.895 70.32 344.461 70.16 345.069 70.16C345.677 70.16 346.237 70.32 346.749 70.64C347.261 70.9493 347.671 71.408 347.981 72.016C348.301 72.6133 348.461 73.3387 348.461 74.192C348.461 75.0347 348.301 75.7547 347.981 76.352C347.671 76.9493 347.261 77.408 346.749 77.728C346.237 78.0373 345.677 78.192 345.069 78.192ZM345.069 77.744C345.613 77.744 346.103 77.5947 346.541 77.296C346.978 76.9973 347.319 76.5813 347.565 76.048C347.821 75.5147 347.949 74.896 347.949 74.192C347.949 73.488 347.821 72.8693 347.565 72.336C347.319 71.792 346.978 71.3707 346.541 71.072C346.103 70.7627 345.613 70.608 345.069 70.608C344.525 70.608 344.034 70.7627 343.597 71.072C343.17 71.3707 342.829 71.792 342.573 72.336C342.317 72.8693 342.189 73.488 342.189 74.192C342.189 74.896 342.317 75.5147 342.573 76.048C342.829 76.5813 343.17 76.9973 343.597 77.296C344.034 77.5947 344.525 77.744 345.069 77.744ZM350.864 78V70.352H351.28L351.344 71.568H351.376C351.781 71.1627 352.192 70.8267 352.608 70.56C353.035 70.2933 353.509 70.16 354.032 70.16C354.821 70.16 355.403 70.4 355.776 70.88C356.149 71.3493 356.336 72.08 356.336 73.072V78H355.856V73.136C355.856 72.2827 355.712 71.648 355.424 71.232C355.136 70.816 354.661 70.608 354 70.608C353.52 70.608 353.083 70.736 352.688 70.992C352.293 71.248 351.845 71.632 351.344 72.144V78H350.864ZM361.782 78.192C360.822 78.192 360.054 77.8507 359.478 77.168C358.902 76.4747 358.614 75.4827 358.614 74.192C358.614 73.3707 358.769 72.6613 359.078 72.064C359.398 71.456 359.814 70.9867 360.326 70.656C360.849 70.3253 361.419 70.16 362.038 70.16C362.507 70.16 362.918 70.2453 363.27 70.416C363.633 70.576 364.011 70.8107 364.406 71.12L364.374 69.68V66.448H364.854V78H364.438L364.374 76.976H364.342C364.022 77.296 363.649 77.5787 363.222 77.824C362.795 78.0693 362.315 78.192 361.782 78.192ZM361.814 77.744C362.262 77.744 362.694 77.6267 363.11 77.392C363.526 77.1573 363.947 76.8267 364.374 76.4V71.664C363.947 71.28 363.547 71.008 363.174 70.848C362.801 70.688 362.411 70.608 362.006 70.608C361.462 70.608 360.971 70.768 360.534 71.088C360.107 71.408 359.766 71.84 359.51 72.384C359.254 72.928 359.126 73.5307 359.126 74.192C359.126 75.248 359.355 76.1067 359.814 76.768C360.283 77.4187 360.95 77.744 361.814 77.744ZM369.719 78.192C369.111 78.192 368.572 78.096 368.103 77.904C367.644 77.712 367.255 77.456 366.935 77.136L367.223 76.816C367.543 77.0827 367.889 77.3067 368.263 77.488C368.647 77.6587 369.143 77.744 369.751 77.744C370.391 77.744 370.876 77.5787 371.207 77.248C371.537 76.9173 371.703 76.5387 371.703 76.112C371.703 75.7707 371.601 75.488 371.399 75.264C371.207 75.04 370.961 74.8533 370.663 74.704C370.375 74.5547 370.081 74.4267 369.783 74.32C369.388 74.1813 369.004 74.0267 368.631 73.856C368.257 73.6853 367.948 73.4667 367.703 73.2C367.468 72.9333 367.351 72.5813 367.351 72.144C367.351 71.6107 367.553 71.1467 367.959 70.752C368.375 70.3573 368.972 70.16 369.751 70.16C370.167 70.16 370.556 70.2347 370.919 70.384C371.281 70.5227 371.596 70.704 371.863 70.928L371.575 71.248C371.319 71.0667 371.047 70.9173 370.759 70.8C370.471 70.672 370.124 70.608 369.719 70.608C369.079 70.608 368.609 70.768 368.311 71.088C368.012 71.3973 367.863 71.7387 367.863 72.112C367.863 72.4213 367.948 72.6773 368.119 72.88C368.289 73.072 368.508 73.2373 368.775 73.376C369.052 73.504 369.345 73.6267 369.655 73.744C370.06 73.904 370.46 74.0693 370.855 74.24C371.249 74.4 371.575 74.624 371.831 74.912C372.087 75.1893 372.215 75.5787 372.215 76.08C372.215 76.4533 372.119 76.8 371.927 77.12C371.735 77.44 371.452 77.7013 371.079 77.904C370.705 78.096 370.252 78.192 369.719 78.192ZM379.584 78.192C379.051 78.192 378.555 78.08 378.096 77.856C377.648 77.6213 377.285 77.2907 377.008 76.864C376.741 76.4373 376.608 75.9307 376.608 75.344C376.608 74.864 376.72 74.432 376.944 74.048C377.179 73.664 377.472 73.312 377.824 72.992C378.187 72.672 378.571 72.368 378.976 72.08C379.381 71.7813 379.76 71.4827 380.112 71.184C380.475 70.8853 380.768 70.5707 380.992 70.24C381.227 69.9093 381.344 69.5413 381.344 69.136C381.344 68.784 381.253 68.4587 381.072 68.16C380.891 67.8507 380.576 67.696 380.128 67.696C379.637 67.696 379.253 67.8773 378.976 68.24C378.699 68.592 378.56 69.0187 378.56 69.52C378.56 70.0747 378.677 70.6613 378.912 71.28C379.147 71.888 379.456 72.5013 379.84 73.12C380.224 73.728 380.651 74.3093 381.12 74.864C381.6 75.408 382.08 75.888 382.56 76.304C382.965 76.656 383.355 76.9547 383.728 77.2C384.112 77.4347 384.469 77.616 384.8 77.744L384.608 78.192C384.277 78.064 383.915 77.8773 383.52 77.632C383.125 77.3867 382.709 77.072 382.272 76.688C381.76 76.2293 381.253 75.712 380.752 75.136C380.261 74.56 379.813 73.952 379.408 73.312C379.003 72.672 378.677 72.032 378.432 71.392C378.197 70.752 378.08 70.1387 378.08 69.552C378.08 69.104 378.165 68.7093 378.336 68.368C378.517 68.016 378.763 67.744 379.072 67.552C379.392 67.3493 379.755 67.248 380.16 67.248C380.704 67.248 381.115 67.424 381.392 67.776C381.68 68.128 381.824 68.5707 381.824 69.104C381.824 69.5413 381.712 69.9413 381.488 70.304C381.264 70.656 380.971 70.9867 380.608 71.296C380.256 71.6053 379.877 71.9093 379.472 72.208C379.067 72.5067 378.683 72.8107 378.32 73.12C377.968 73.4293 377.68 73.7653 377.456 74.128C377.232 74.48 377.12 74.8747 377.12 75.312C377.12 75.8027 377.232 76.2293 377.456 76.592C377.691 76.9547 377.995 77.2373 378.368 77.44C378.752 77.6427 379.168 77.744 379.616 77.744C380.117 77.744 380.587 77.616 381.024 77.36C381.461 77.0933 381.856 76.7627 382.208 76.368C382.656 75.856 383.035 75.2747 383.344 74.624C383.664 73.9733 383.925 73.2747 384.128 72.528H384.608C384.384 73.3067 384.101 74.0533 383.76 74.768C383.429 75.472 383.029 76.1013 382.56 76.656C382.165 77.104 381.728 77.472 381.248 77.76C380.768 78.048 380.213 78.192 379.584 78.192ZM389.564 78V77.552H391.996V68.72H390.172V68.368C390.577 68.304 390.934 68.2187 391.244 68.112C391.564 68.0053 391.836 67.888 392.06 67.76H392.476V77.552H394.748V78H389.564ZM396.374 74.256V73.776H399.83V74.256H396.374ZM402.038 78V67.44H402.549V77.552H407.51V78H402.038ZM409.333 78V70.352H409.813V78H409.333ZM409.557 68.4C409.418 68.4 409.296 68.3467 409.189 68.24C409.093 68.1333 409.045 67.9947 409.045 67.824C409.045 67.664 409.093 67.536 409.189 67.44C409.296 67.3333 409.424 67.28 409.573 67.28C409.712 67.28 409.829 67.3333 409.925 67.44C410.021 67.536 410.069 67.664 410.069 67.824C410.069 67.9947 410.021 68.1333 409.925 68.24C409.829 68.3467 409.706 68.4 409.557 68.4ZM412.88 78V70.352H413.296L413.36 71.568H413.392C413.797 71.1627 414.208 70.8267 414.624 70.56C415.05 70.2933 415.525 70.16 416.048 70.16C416.837 70.16 417.418 70.4 417.792 70.88C418.165 71.3493 418.352 72.08 418.352 73.072V78H417.872V73.136C417.872 72.2827 417.728 71.648 417.44 71.232C417.152 70.816 416.677 70.608 416.016 70.608C415.536 70.608 415.098 70.736 414.704 70.992C414.309 71.248 413.861 71.632 413.36 72.144V78H412.88ZM424.118 78.192C423.478 78.192 422.891 78.032 422.358 77.712C421.835 77.392 421.414 76.9333 421.094 76.336C420.784 75.7387 420.63 75.024 420.63 74.192C420.63 73.36 420.784 72.6453 421.094 72.048C421.414 71.44 421.824 70.976 422.326 70.656C422.827 70.3253 423.36 70.16 423.926 70.16C424.512 70.16 425.019 70.2987 425.446 70.576C425.883 70.8427 426.219 71.2373 426.454 71.76C426.688 72.2827 426.806 72.9227 426.806 73.68C426.806 73.7547 426.806 73.8347 426.806 73.92C426.806 74.0053 426.795 74.096 426.774 74.192H420.886V73.744H426.326C426.326 72.688 426.107 71.904 425.67 71.392C425.232 70.8693 424.651 70.608 423.926 70.608C423.478 70.608 423.04 70.7413 422.614 71.008C422.187 71.264 421.835 71.6587 421.558 72.192C421.28 72.7147 421.142 73.3707 421.142 74.16C421.142 74.8853 421.27 75.52 421.526 76.064C421.792 76.5973 422.155 77.0133 422.614 77.312C423.072 77.6 423.584 77.744 424.15 77.744C424.587 77.744 424.982 77.6853 425.334 77.568C425.686 77.4507 425.995 77.296 426.262 77.104L426.486 77.456C426.198 77.648 425.872 77.8187 425.51 77.968C425.158 78.1173 424.694 78.192 424.118 78.192ZM435.857 78.192C434.993 78.192 434.231 77.968 433.569 77.52C432.919 77.0613 432.412 76.4213 432.049 75.6C431.687 74.768 431.505 73.7973 431.505 72.688C431.505 71.856 431.607 71.1093 431.809 70.448C432.023 69.776 432.327 69.2 432.721 68.72C433.116 68.24 433.585 67.8773 434.129 67.632C434.673 67.376 435.281 67.248 435.953 67.248C436.551 67.248 437.079 67.3707 437.537 67.616C438.007 67.8613 438.375 68.1547 438.641 68.496L438.321 68.816C438.033 68.4747 437.687 68.208 437.281 68.016C436.876 67.824 436.433 67.728 435.953 67.728C435.143 67.728 434.444 67.9307 433.857 68.336C433.281 68.7413 432.833 69.3173 432.513 70.064C432.204 70.8 432.049 71.6747 432.049 72.688C432.049 73.7013 432.204 74.5867 432.513 75.344C432.823 76.0907 433.265 76.672 433.841 77.088C434.417 77.504 435.1 77.712 435.889 77.712C436.455 77.712 436.956 77.6107 437.393 77.408C437.841 77.1947 438.263 76.864 438.657 76.416L438.961 76.688C438.567 77.1467 438.124 77.5147 437.633 77.792C437.153 78.0587 436.561 78.192 435.857 78.192ZM443.85 78.192C443.242 78.192 442.676 78.0373 442.154 77.728C441.642 77.408 441.231 76.9493 440.922 76.352C440.612 75.7547 440.458 75.0347 440.458 74.192C440.458 73.3387 440.612 72.6133 440.922 72.016C441.231 71.408 441.642 70.9493 442.154 70.64C442.676 70.32 443.242 70.16 443.85 70.16C444.458 70.16 445.018 70.32 445.53 70.64C446.042 70.9493 446.452 71.408 446.762 72.016C447.082 72.6133 447.242 73.3387 447.242 74.192C447.242 75.0347 447.082 75.7547 446.762 76.352C446.452 76.9493 446.042 77.408 445.53 77.728C445.018 78.0373 444.458 78.192 443.85 78.192ZM443.85 77.744C444.394 77.744 444.884 77.5947 445.322 77.296C445.759 76.9973 446.1 76.5813 446.346 76.048C446.602 75.5147 446.73 74.896 446.73 74.192C446.73 73.488 446.602 72.8693 446.346 72.336C446.1 71.792 445.759 71.3707 445.322 71.072C444.884 70.7627 444.394 70.608 443.85 70.608C443.306 70.608 442.815 70.7627 442.378 71.072C441.951 71.3707 441.61 71.792 441.354 72.336C441.098 72.8693 440.97 73.488 440.97 74.192C440.97 74.896 441.098 75.5147 441.354 76.048C441.61 76.5813 441.951 76.9973 442.378 77.296C442.815 77.5947 443.306 77.744 443.85 77.744ZM452.141 78.192C451.181 78.192 450.413 77.8507 449.837 77.168C449.261 76.4747 448.973 75.4827 448.973 74.192C448.973 73.3707 449.128 72.6613 449.437 72.064C449.757 71.456 450.173 70.9867 450.685 70.656C451.208 70.3253 451.779 70.16 452.397 70.16C452.867 70.16 453.277 70.2453 453.629 70.416C453.992 70.576 454.371 70.8107 454.765 71.12L454.733 69.68V66.448H455.213V78H454.797L454.733 76.976H454.701C454.381 77.296 454.008 77.5787 453.581 77.824C453.155 78.0693 452.675 78.192 452.141 78.192ZM452.173 77.744C452.621 77.744 453.053 77.6267 453.469 77.392C453.885 77.1573 454.307 76.8267 454.733 76.4V71.664C454.307 71.28 453.907 71.008 453.533 70.848C453.16 70.688 452.771 70.608 452.365 70.608C451.821 70.608 451.331 70.768 450.893 71.088C450.467 71.408 450.125 71.84 449.869 72.384C449.613 72.928 449.485 73.5307 449.485 74.192C449.485 75.248 449.715 76.1067 450.173 76.768C450.643 77.4187 451.309 77.744 452.173 77.744ZM461.102 78.192C460.462 78.192 459.875 78.032 459.342 77.712C458.819 77.392 458.398 76.9333 458.078 76.336C457.769 75.7387 457.614 75.024 457.614 74.192C457.614 73.36 457.769 72.6453 458.078 72.048C458.398 71.44 458.809 70.976 459.31 70.656C459.811 70.3253 460.345 70.16 460.91 70.16C461.497 70.16 462.003 70.2987 462.43 70.576C462.867 70.8427 463.203 71.2373 463.438 71.76C463.673 72.2827 463.79 72.9227 463.79 73.68C463.79 73.7547 463.79 73.8347 463.79 73.92C463.79 74.0053 463.779 74.096 463.758 74.192H457.87V73.744H463.31C463.31 72.688 463.091 71.904 462.654 71.392C462.217 70.8693 461.635 70.608 460.91 70.608C460.462 70.608 460.025 70.7413 459.598 71.008C459.171 71.264 458.819 71.6587 458.542 72.192C458.265 72.7147 458.126 73.3707 458.126 74.16C458.126 74.8853 458.254 75.52 458.51 76.064C458.777 76.5973 459.139 77.0133 459.598 77.312C460.057 77.6 460.569 77.744 461.134 77.744C461.571 77.744 461.966 77.6853 462.318 77.568C462.67 77.4507 462.979 77.296 463.246 77.104L463.47 77.456C463.182 77.648 462.857 77.8187 462.494 77.968C462.142 78.1173 461.678 78.192 461.102 78.192ZM466.183 75.248L466.119 68.272V67.28H466.631V68.272L466.567 75.248H466.183ZM466.375 78.192C466.236 78.192 466.103 78.1387 465.975 78.032C465.857 77.9253 465.799 77.776 465.799 77.584C465.799 77.3707 465.857 77.2107 465.975 77.104C466.103 76.9973 466.236 76.944 466.375 76.944C466.524 76.944 466.657 76.9973 466.775 77.104C466.892 77.2107 466.951 77.3707 466.951 77.584C466.951 77.776 466.892 77.9253 466.775 78.032C466.657 78.1387 466.524 78.192 466.375 78.192Z" fill="white"/>
<path fill-rule="evenodd" clip-rule="evenodd" d="M22.6782 14C23.76 14.5988 24.7273 15.3546 25.5798 16.2674C27.9956 18.8637 29.469 21.9228 30 25.4447C27.0838 24.3643 24.5799 24.9581 22.4884 27.2262C21.0262 29.1937 20.755 31.3171 21.6749 33.5964C21.9233 34.073 22.1854 34.5409 22.4613 35C19.4817 34.5994 17.4479 32.9979 16.3598 30.1954C16.0859 29.3163 15.9684 28.4165 16.0073 27.4961C17.067 27.6015 18.0071 27.3226 18.8275 26.6594C19.6987 25.8636 20.3586 24.9189 20.8071 23.8252C21.7083 21.5687 22.2687 19.2294 22.4884 16.8072C22.5908 15.874 22.6541 14.9382 22.6782 14ZM20.6715 33.5964C18.5002 32.6206 17.2528 30.9471 16.9293 28.5758C16.9331 28.5072 16.9511 28.4442 16.9835 28.3869C18.3573 28.1666 19.4692 27.5098 20.319 26.4165C21.0482 25.4689 21.6086 24.4252 22.0003 23.2853C22.8331 20.7953 23.3392 18.2401 23.5189 15.6195C26.2424 17.8914 28.0141 20.7526 28.8339 24.2031C25.5907 23.6471 23.0598 24.7268 21.241 27.4422C20.1307 29.4092 19.9409 31.4606 20.6715 33.5964Z" fill="url(#paint1_linear_898_1441)"/>
<g opacity="0.4">
<path d="M401.442 57.0137L400 59.406V74.2113H511V20.7745C509.558 18.4354 506.675 13.7571 503.792 15.2939C500.909 16.8307 498.026 24.5825 495.143 28.6877C492.26 32.7929 489.377 33.2514 486.493 32.3135C483.61 31.3756 480.727 29.0412 477.844 29.4439C474.961 29.8466 472.078 32.9863 469.195 31.4895C466.312 29.9926 463.429 23.8593 460.545 22.0896C457.662 20.3199 454.779 22.9139 451.896 27.5169C449.013 32.1199 446.13 38.7319 443.247 39.1562C440.364 39.5805 437.481 33.817 434.597 34.7972C431.714 35.7775 428.831 43.5015 425.948 44.6324C423.065 45.7633 420.182 40.3011 417.299 39.2722C414.416 38.2434 411.532 41.6479 408.649 45.7424C405.766 49.8369 402.883 54.6215 401.442 57.0137Z" fill="url(#paint2_linear_898_1441)"/>
<path d="M400 59.5587L401.442 57.1582C402.883 54.7577 405.766 49.9567 408.649 45.8481C411.532 41.7395 414.416 38.3233 417.299 39.3557C420.182 40.3881 423.065 45.8691 425.948 44.7343C428.831 43.5995 431.714 35.8489 434.597 34.8653C437.481 33.8817 440.364 39.665 443.247 39.2392C446.13 38.8135 449.013 32.1788 451.896 27.56C454.779 22.9412 457.662 20.3382 460.545 22.114C463.429 23.8897 466.312 30.0442 469.195 31.5462C472.078 33.0481 474.961 29.8976 477.844 29.4936C480.727 29.0895 483.61 31.4319 486.494 32.373C489.377 33.3141 492.26 32.8541 495.143 28.7348C498.026 24.6155 500.909 16.837 503.792 15.2949C506.675 13.7529 509.558 18.4472 511 20.7944" stroke="#B9A1F1"/>
</g>
<defs>
<linearGradient id="paint0_linear_898_1441" x1="0" y1="48" x2="512" y2="48" gradientUnits="userSpaceOnUse">
<stop stop-color="#16143B"/>
<stop offset="1" stop-color="#3C37A1"/>
</linearGradient>
<linearGradient id="paint1_linear_898_1441" x1="23" y1="14" x2="23" y2="35" gradientUnits="userSpaceOnUse">
<stop stop-color="#FEFFFE"/>
<stop offset="1" stop-color="#989998"/>
</linearGradient>
<linearGradient id="paint2_linear_898_1441" x1="455.5" y1="14.9902" x2="455.5" y2="74.2113" gradientUnits="userSpaceOnUse">
<stop stop-color="#A347D5"/>
<stop offset="1" stop-color="#0A0A0A" stop-opacity="0"/>
</linearGradient>
</defs>
</svg>
